# xmcd
#
# Track frame offsets: 
#        150
#        9413
#        21413
#        53430
#        66919
#        82365
#        96219
#        114425
#        121291
#        137294
#        146964
#        158060
#        168363
#        177037
#        187053
#        196319
#        204353
#        213587
#        224840
#        235700
#        257079
#        273076
#        284001
#        302213
#        318523
#        327849
#        344921
#
# Disc length: 4741 seconds
#
# Revision: 0
# Processed by: cddbd v1.5.2PL0 Copyright (c) Steve Scherf et al.
# Submitted via: ExactAudioCopy v0.99pb5
#
DISCID=a112831b
DTITLE=The Beatles - Love ballads
DYEAR=2002
DGENRE=Rock
TTITLE0=Yesterday
TTITLE1=Michelle
TTITLE2=Hey Jude
TTITLE3=Something
TTITLE4=On! Darling
TTITLE5=Here comes the sun
TTITLE6=You never give me your money
TTITLE7=Golden slumbers
TTITLE8=Don't let me down
TTITLE9=You've got to hide your love away
TTITLE10=I need you
TTITLE11=You're going to lose that girl
TTITLE12=It's only love
TTITLE13=No reply
TTITLE14=Baby's in black
TTITLE15=I'll follow the sun
TTITLE16=Norwegian wood
TTITLE17=Girl
TTITLE18=In my life
TTITLE19=Long, long, long
TTITLE20=Good night
TTITLE21=I me mine
TTITLE22=Let it be
TTITLE23=The long and winding road
TTITLE24=Eleanor Rigby
TTITLE25=All you need is love
TTITLE26=Here, there and everywhere
EXTD=
EXTT0=
EXTT1=
EXTT2=
EXTT3=
EXTT4=
EXTT5=
EXTT6=
EXTT7=
EXTT8=
EXTT9=
EXTT10=
EXTT11=
EXTT12=
EXTT13=
EXTT14=
EXTT15=
EXTT16=
EXTT17=
EXTT18=
EXTT19=
EXTT20=
EXTT21=
EXTT22=
EXTT23=
EXTT24=
EXTT25=
EXTT26=
PLAYORDER=
